# xmcd
#
# Track frame offsets: 
#        150
#        11592
#        28547
#        43425
#        58451
#        74574
#        91003
#        107165
#        121679
#        140461
#        159607
#        175755
#        189505
#        203122
#        215178
#        227852
#        245916
#        263607
#        277169
#        293097
#
# Disc length: 4106 seconds
#
# Revision: 0
# Processed by: cddbd v1.5.2PL0 Copyright (c) Steve Scherf et al.
# Submitted via: ExactAudioCopy v1.1
#
DISCID=38100814
DTITLE=Various Artist - MNM Big Hits 2018 Vol. 1 - CD 1
DYEAR=2018
DGENRE=Top 40
TTITLE0=Lost Frequencies and Zonderling - Crazy
TTITLE1=Lil Kleine Feat. Ronnie Flex - Loterij
TTITLE2=Maroon 5 feat. SZA - What Lovers Do
TTITLE3=Imagine Dragons - Whatever It Takes
TTITLE4=Rita Ora - Anywhere
TTITLE5=Bløf Feat. Geike Arnaert - Zoutelande
TTITLE6=Jasper Steverlinck - Here's To Love
TTITLE7=The Chainsmokers - Sick Boy
TTITLE8=P!nk - Beautiful Trauma
TTITLE9=Oscar And The Wolf - Runaway
TTITLE10=Camila Cabello Feat. Young Thug - Havana
TTITLE11=Martin Garrix and David Guetta Feat. Jamie Scott and Romy Dya - S
TTITLE11=o Far Away
TTITLE12=Avicii Feat. Rita Ora - Lonely Together
TTITLE13=Gers Pardoel - Ma Chérie
TTITLE14=Martin Solveig Feat. Alma - All Stars
TTITLE15=The Script - Arms Open
TTITLE16=Kygo Feat. Justin Jesso - Stargazing
TTITLE17=Louis Tomlinson - Miss You
TTITLE18=Scott Helman - PDA
TTITLE19=Stan Van Samang - Hemel Voor Ons Twee
EXTD=
EXTT0=
EXTT1=
EXTT2=
EXTT3=
EXTT4=
EXTT5=
EXTT6=
EXTT7=
EXTT8=
EXTT9=
EXTT10=
EXTT11=
EXTT12=
EXTT13=
EXTT14=
EXTT15=
EXTT16=
EXTT17=
EXTT18=
EXTT19=
PLAYORDER=
